<svg width="48" height="48" viewBox="0 0 48 48" fill="none" xmlns="http://www.w3.org/2000/svg" xmlns:xlink="http://www.w3.org/1999/xlink">
<path d="M14,34.026L22.826,33.996L42.09,14.916C42.846,14.16 43.262,13.156 43.262,12.088C43.262,11.02 42.846,10.016 42.09,9.26L38.918,6.088C37.406,4.576 34.768,4.584 33.268,6.082L14,25.166L14,34.026ZM36.09,8.916L39.268,12.082L36.074,15.246L32.902,12.076L36.09,8.916ZM18,26.834L30.06,14.888L33.232,18.06L21.174,30.002L18,30.012L18,26.834Z" fill="#000000"/>
<path d="M10,42L38,42C40.206,42 42,40.206 42,38L42,20.664L38,24.664L38,38L16.316,38C16.264,38 16.21,38.02 16.158,38.02C16.092,38.02 16.026,38.002 15.958,38L10,38L10,10L23.694,10L27.694,6L10,6C7.794,6 6,7.794 6,10L6,38C6,40.206 7.794,42 10,42Z" fill="#000000"/>
</svg>
