<svg width="46" height="56" viewBox="0 0 46 56" fill="none" xmlns="http://www.w3.org/2000/svg" xmlns:xlink="http://www.w3.org/1999/xlink">
<path d="M2.79,1.979C3.64,1.148 4.829,0.606 7.08,0.311C9.398,0.006 12.466,0 16.867,0L29.133,0C33.535,0 36.602,0.006 38.92,0.311C41.171,0.606 42.36,1.148 43.21,1.979C44.058,2.812 44.611,3.979 44.914,6.183C45.225,8.453 45.231,11.46 45.231,15.77L45.231,37.553L10.067,37.553C7.558,37.553 5.846,37.55 4.379,37.936C3.068,38.281 1.85,38.842 0.77,39.581L0.77,15.773C0.77,11.46 0.775,8.453 1.086,6.183C1.389,3.979 1.942,2.812 2.79,1.979ZM10.737,10.515C10.134,10.509 9.553,10.743 9.121,11.165C8.69,11.587 8.444,12.163 8.436,12.766C8.436,14.011 9.464,15.019 10.734,15.019L35.266,15.019C35.869,15.025 36.449,14.791 36.88,14.369C37.311,13.947 37.557,13.372 37.564,12.769C37.557,12.165 37.312,11.589 36.881,11.167C36.45,10.744 35.869,10.51 35.266,10.515L10.737,10.515ZM8.436,23.281C8.436,22.039 9.464,21.03 10.734,21.03L26.065,21.03C26.669,21.024 27.25,21.258 27.681,21.68C28.112,22.102 28.359,22.678 28.366,23.281C28.359,23.885 28.113,24.461 27.682,24.884C27.251,25.306 26.669,25.54 26.065,25.535L10.734,25.535C10.131,25.54 9.551,25.306 9.12,24.884C8.69,24.462 8.444,23.884 8.436,23.281Z" clip-rule="evenodd" fill-rule="evenodd" fill="#A098AE"/>
<path d="M10.379,42.481C7.381,42.481 6.333,42.501 5.527,42.712C4.454,42.989 3.464,43.523 2.643,44.267C1.821,45.012 1.193,45.945 0.812,46.986C0.856,48.047 0.931,48.983 1.045,49.817C1.348,52.021 1.901,53.188 2.748,54.021C3.599,54.852 4.788,55.394 7.039,55.689C9.356,55.994 12.424,56 16.826,56L29.092,56C33.493,56 36.561,55.994 38.879,55.692C41.129,55.394 42.319,54.852 43.169,54.021C43.769,53.43 44.225,52.671 44.545,51.493L10.693,51.493C10.09,51.498 9.51,51.264 9.079,50.842C8.648,50.42 8.402,49.845 8.395,49.242C8.395,47.997 9.423,46.988 10.693,46.988L45.106,46.988C45.161,45.693 45.181,44.21 45.189,42.481L10.379,42.481Z" fill="#A098AE"/>
</svg>
