<svg width="46" height="56" viewBox="0 0 46 56" fill="none" xmlns="http://www.w3.org/2000/svg" xmlns:xlink="http://www.w3.org/1999/xlink">
<path d="M2.79,1.979C3.64,1.148 4.829,0.606 7.08,0.311C9.398,0.006 12.466,0 16.867,0L29.133,0C33.535,0 36.602,0.006 38.92,0.311C41.171,0.606 42.36,1.148 43.21,1.979C44.058,2.812 44.611,3.979 44.914,6.183C45.225,8.453 45.231,11.46 45.231,15.77L45.231,37.553L10.067,37.553C7.558,37.553 5.846,37.55 4.379,37.936C3.068,38.281 1.85,38.842 0.77,39.581L0.77,15.773C0.77,11.46 0.775,8.453 1.086,6.183C1.389,3.979 1.942,2.812 2.79,1.979ZM10.737,10.515C10.134,10.509 9.553,10.743 9.121,11.165C8.69,11.587 8.444,12.163 8.436,12.766C8.436,14.011 9.464,15.019 10.734,15.019L35.266,15.019C35.869,15.025 36.449,14.791 36.88,14.369C37.311,13.947 37.557,13.372 37.564,12.769C37.557,12.165 37.312,11.589 36.881,11.167C36.45,10.744 35.869,10.51 35.266,10.515L10.737,10.515ZM8.436,23.281C8.436,22.039 9.464,21.03 10.734,21.03L26.065,21.03C26.669,21.024 27.25,21.258 27.681,21.68C28.112,22.102 28.359,22.678 28.366,23.281C28.359,23.885 28.113,24.461 27.682,24.884C27.251,25.306 26.669,25.54 26.065,25.535L10.734,25.535C10.131,25.54 9.551,25.306 9.12,24.884C8.69,24.462 8.444,23.884 8.436,23.281Z" clip-rule="evenodd" fill-rule="evenodd" fill="#A098AE"/>
<path d="M10.378,42.481C7.38,42.481 6.332,42.501 5.526,42.712C4.453,42.989 3.463,43.523 2.642,44.267C1.82,45.012 1.192,45.945 0.811,46.986C0.855,48.047 0.93,48.983 1.044,49.817C1.347,52.021 1.9,53.188 2.747,54.021C3.598,54.852 4.787,55.394 7.038,55.689C9.355,55.994 12.423,56 16.825,56L29.091,56C33.492,56 36.56,55.994 38.878,55.692C41.128,55.394 42.318,54.852 43.168,54.021C43.768,53.43 44.224,52.671 44.544,51.493L10.692,51.493C10.089,51.498 9.509,51.264 9.078,50.842C8.647,50.42 8.401,49.845 8.394,49.242C8.394,47.997 9.422,46.988 10.692,46.988L45.105,46.988C45.16,45.693 45.18,44.21 45.188,42.481L10.378,42.481Z" fill="#A098AE"/>
</svg>
