<svg width="50" height="56" viewBox="0 0 50 56" fill="none" xmlns="http://www.w3.org/2000/svg" xmlns:xlink="http://www.w3.org/1999/xlink">
<path d="M-0.334,47.667C-0.334,53.393 12.626,56 24.666,56C36.706,56 49.666,53.393 49.666,47.667C49.666,43.12 41.796,41.067 36.126,40.18L39.999,36.333C43.03,33.303 45.093,29.443 45.93,25.24C46.766,21.037 46.337,16.68 44.697,12.721C43.057,8.762 40.28,5.378 36.717,2.997C33.154,0.616 28.965,-0.655 24.679,-0.655C20.394,-0.655 16.205,0.616 12.642,2.997C9.079,5.378 6.302,8.762 4.662,12.721C3.022,16.68 2.593,21.037 3.429,25.24C4.265,29.443 6.329,33.303 9.359,36.333L13.219,40.193C7.536,41.067 -0.334,43.12 -0.334,47.667ZM27.999,12.667C27.999,12.357 28.086,12.054 28.248,11.79C28.411,11.527 28.644,11.314 28.921,11.176C29.197,11.038 29.507,10.979 29.816,11.007C30.124,11.035 30.418,11.148 30.666,11.333C32.73,12.882 34.444,14.848 35.695,17.105C36.947,19.361 37.708,21.856 37.929,24.427C38.003,25.216 37.79,26.006 37.33,26.652C36.87,27.298 36.193,27.758 35.423,27.947L31.333,28.97L31.333,32.667C31.333,33.109 31.157,33.533 30.845,33.845C30.532,34.158 30.108,34.333 29.666,34.333C29.224,34.333 28.8,34.158 28.487,33.845C28.175,33.533 27.999,33.109 27.999,32.667L27.999,12.667ZM12.999,16L12.999,12.667C12.999,12.225 13.175,11.801 13.487,11.488C13.8,11.176 14.224,11 14.666,11C15.108,11 15.532,11.176 15.845,11.488C16.157,11.801 16.333,12.225 16.333,12.667L16.333,16C16.339,16.575 16.497,17.138 16.789,17.633C17.082,18.128 17.499,18.537 17.999,18.82L17.999,12.667C17.999,12.225 18.175,11.801 18.487,11.488C18.8,11.176 19.224,11 19.666,11C20.108,11 20.532,11.176 20.845,11.488C21.157,11.801 21.333,12.225 21.333,12.667L21.333,18.82C21.833,18.537 22.25,18.128 22.543,17.633C22.835,17.138 22.993,16.575 22.999,16L22.999,12.667C22.999,12.225 23.175,11.801 23.487,11.488C23.8,11.176 24.224,11 24.666,11C25.108,11 25.532,11.176 25.845,11.488C26.157,11.801 26.333,12.225 26.333,12.667L26.333,16C26.327,17.474 25.833,18.904 24.929,20.067C24.024,21.231 22.76,22.062 21.333,22.43L21.333,32.667C21.333,33.109 21.157,33.533 20.845,33.845C20.532,34.158 20.108,34.333 19.666,34.333C19.224,34.333 18.8,34.158 18.487,33.845C18.175,33.533 17.999,33.109 17.999,32.667L17.999,22.43C16.572,22.062 15.308,21.231 14.403,20.067C13.499,18.904 13.005,17.474 12.999,16ZM16.179,43.153L21.129,48.107C21.594,48.571 22.145,48.94 22.752,49.191C23.359,49.443 24.009,49.572 24.666,49.572C25.323,49.572 25.973,49.443 26.58,49.191C27.187,48.94 27.738,48.571 28.203,48.107L33.153,43.153C42.313,44.213 46.333,46.627 46.333,47.667C46.333,49.16 38.963,52.667 24.666,52.667C10.369,52.667 2.999,49.16 2.999,47.667C2.999,46.627 7.019,44.213 16.179,43.153Z" fill="#FFFFFF"/>
</svg>
