<svg width="72" height="82" viewBox="0 0 72 82" fill="none" xmlns="http://www.w3.org/2000/svg" xmlns:xlink="http://www.w3.org/1999/xlink">
<path d="M-1,68.858C-1,77.018 17.468,80.733 34.625,80.733C51.782,80.733 70.25,77.018 70.25,68.858C70.25,62.379 59.035,59.453 50.955,58.189L56.475,52.708C60.793,48.39 63.734,42.889 64.926,36.899C66.117,30.91 65.506,24.702 63.169,19.06C60.832,13.418 56.875,8.596 51.798,5.204C46.72,1.811 40.751,0 34.644,0C28.537,0 22.568,1.811 17.49,5.204C12.413,8.596 8.456,13.418 6.119,19.06C3.782,24.702 3.171,30.91 4.362,36.899C5.554,42.889 8.495,48.39 12.813,52.708L18.314,58.208C10.215,59.453 -1,62.379 -1,68.858ZM39.375,18.983C39.375,18.542 39.498,18.109 39.73,17.734C39.962,17.359 40.293,17.056 40.688,16.859C41.082,16.661 41.524,16.578 41.963,16.617C42.403,16.657 42.822,16.818 43.175,17.083C46.116,19.289 48.558,22.092 50.342,25.307C52.125,28.522 53.21,32.078 53.525,35.741C53.63,36.866 53.326,37.992 52.671,38.912C52.015,39.833 51.051,40.487 49.953,40.757L44.125,42.215L44.125,47.483C44.125,48.113 43.875,48.717 43.429,49.162C42.984,49.608 42.38,49.858 41.75,49.858C41.12,49.858 40.516,49.608 40.071,49.162C39.625,48.717 39.375,48.113 39.375,47.483L39.375,18.983ZM18,23.733L18,18.983C18,18.353 18.25,17.749 18.696,17.303C19.141,16.858 19.745,16.608 20.375,16.608C21.005,16.608 21.609,16.858 22.054,17.303C22.5,17.749 22.75,18.353 22.75,18.983L22.75,23.733C22.759,24.552 22.984,25.354 23.401,26.059C23.817,26.765 24.412,27.348 25.125,27.751L25.125,18.983C25.125,18.353 25.375,17.749 25.821,17.303C26.266,16.858 26.87,16.608 27.5,16.608C28.13,16.608 28.734,16.858 29.179,17.303C29.625,17.749 29.875,18.353 29.875,18.983L29.875,27.751C30.588,27.348 31.183,26.765 31.599,26.059C32.016,25.354 32.241,24.552 32.25,23.733L32.25,18.983C32.25,18.353 32.5,17.749 32.946,17.303C33.391,16.858 33.995,16.608 34.625,16.608C35.255,16.608 35.859,16.858 36.304,17.303C36.75,17.749 37,18.353 37,18.983L37,23.733C36.992,25.833 36.289,27.871 35,29.529C33.71,31.187 31.908,32.371 29.875,32.896L29.875,47.483C29.875,48.113 29.625,48.717 29.179,49.162C28.734,49.608 28.13,49.858 27.5,49.858C26.87,49.858 26.266,49.608 25.821,49.162C25.375,48.717 25.125,48.113 25.125,47.483L25.125,32.896C23.092,32.371 21.29,31.187 20,29.529C18.711,27.871 18.008,25.833 18,23.733ZM22.532,62.426L29.585,69.485C30.247,70.147 31.033,70.672 31.897,71.031C32.762,71.389 33.689,71.573 34.625,71.573C35.561,71.573 36.488,71.389 37.353,71.031C38.217,70.672 39.003,70.147 39.665,69.485L46.718,62.426C59.771,63.937 65.5,67.376 65.5,68.858C65.5,70.986 54.998,75.983 34.625,75.983C14.252,75.983 3.75,70.986 3.75,68.858C3.75,67.376 9.478,63.937 22.532,62.426Z" fill="#FFFFFF"/>
</svg>
