<svg width="40" height="40" viewBox="0 0 40 40" fill="none" xmlns="http://www.w3.org/2000/svg" xmlns:xlink="http://www.w3.org/1999/xlink">
<path d="M9,4C9,2.939 9.421,1.922 10.172,1.172C10.922,0.421 11.939,0 13,0L25,0C26.061,0 27.078,0.421 27.828,1.172C28.579,1.922 29,2.939 29,4L29,8L37,8C37.53,8 38.039,8.211 38.414,8.586C38.789,8.961 39,9.47 39,10C39,10.53 38.789,11.039 38.414,11.414C38.039,11.789 37.53,12 37,12L34.862,12L33.128,36.284C33.056,37.293 32.605,38.238 31.864,38.927C31.124,39.617 30.15,40 29.138,40L8.86,40C7.848,40 6.874,39.617 6.134,38.927C5.393,38.238 4.942,37.293 4.87,36.284L3.14,12L1,12C0.47,12 -0.039,11.789 -0.414,11.414C-0.789,11.039 -1,10.53 -1,10C-1,9.47 -0.789,8.961 -0.414,8.586C-0.039,8.211 0.47,8 1,8L9,8L9,4ZM13,8L25,8L25,4L13,4L13,8ZM7.148,12L8.862,36L29.14,36L30.854,12L7.148,12ZM15,16C15.53,16 16.039,16.211 16.414,16.586C16.789,16.961 17,17.47 17,18L17,30C17,30.53 16.789,31.039 16.414,31.414C16.039,31.789 15.53,32 15,32C14.47,32 13.961,31.789 13.586,31.414C13.211,31.039 13,30.53 13,30L13,18C13,17.47 13.211,16.961 13.586,16.586C13.961,16.211 14.47,16 15,16ZM23,16C23.53,16 24.039,16.211 24.414,16.586C24.789,16.961 25,17.47 25,18L25,30C25,30.53 24.789,31.039 24.414,31.414C24.039,31.789 23.53,32 23,32C22.47,32 21.961,31.789 21.586,31.414C21.211,31.039 21,30.53 21,30L21,18C21,17.47 21.211,16.961 21.586,16.586C21.961,16.211 22.47,16 23,16Z" fill="#FE0000"/>
</svg>
