<svg width="64" height="56" viewBox="0 0 64 56" fill="none" xmlns="http://www.w3.org/2000/svg" xmlns:xlink="http://www.w3.org/1999/xlink">
<path d="M6.9,56L57.1,56C62.234,56 65.434,50.433 62.867,46L37.767,2.633C35.2,-1.8 28.8,-1.8 26.234,2.633L1.134,46C-1.433,50.433 1.767,56 6.9,56ZM32,32.667C30.167,32.667 28.667,31.167 28.667,29.333L28.667,22.667C28.667,20.833 30.167,19.333 32,19.333C33.834,19.333 35.334,20.833 35.334,22.667L35.334,29.333C35.334,31.167 33.834,32.667 32,32.667ZM35.334,46L28.667,46L28.667,39.333L35.334,39.333L35.334,46Z" fill="#FF3F56"/>
</svg>
