<svg width="34" height="32" viewBox="0 0 34 32" fill="none" xmlns="http://www.w3.org/2000/svg" xmlns:xlink="http://www.w3.org/1999/xlink">
<path d="M29.269,12.627L19.075,12.627L19.075,2.065C19.075,0.552 17.85,-0.673 16.338,-0.673C14.825,-0.673 13.6,0.552 13.6,2.065L13.6,12.627L2.725,12.627C1.225,12.627 0,13.852 0,15.365C0,16.877 1.225,18.102 2.737,18.102L13.612,18.102L13.612,28.602C13.612,30.115 14.838,31.34 16.35,31.34C17.862,31.34 19.088,30.115 19.088,28.602L19.088,18.102L29.281,18.102C30.794,18.102 32.019,16.877 32.019,15.365C32,13.852 30.781,12.627 29.269,12.627Z" fill="#FFFFFF"/>
</svg>
