<svg width="42" height="40" viewBox="0 0 42 40" fill="none" xmlns="http://www.w3.org/2000/svg" xmlns:xlink="http://www.w3.org/1999/xlink">
<path d="M11,4C11,2.939 11.421,1.922 12.172,1.172C12.922,0.421 13.939,0 15,0L27,0C28.061,0 29.078,0.421 29.828,1.172C30.579,1.922 31,2.939 31,4L31,8L39,8C39.53,8 40.039,8.211 40.414,8.586C40.789,8.961 41,9.47 41,10C41,10.53 40.789,11.039 40.414,11.414C40.039,11.789 39.53,12 39,12L36.862,12L35.128,36.284C35.056,37.293 34.605,38.238 33.864,38.927C33.124,39.617 32.15,40 31.138,40L10.86,40C9.848,40 8.874,39.617 8.134,38.927C7.393,38.238 6.942,37.293 6.87,36.284L5.14,12L3,12C2.47,12 1.961,11.789 1.586,11.414C1.211,11.039 1,10.53 1,10C1,9.47 1.211,8.961 1.586,8.586C1.961,8.211 2.47,8 3,8L11,8L11,4ZM15,8L27,8L27,4L15,4L15,8ZM9.148,12L10.862,36L31.14,36L32.854,12L9.148,12ZM17,16C17.53,16 18.039,16.211 18.414,16.586C18.789,16.961 19,17.47 19,18L19,30C19,30.53 18.789,31.039 18.414,31.414C18.039,31.789 17.53,32 17,32C16.47,32 15.961,31.789 15.586,31.414C15.211,31.039 15,30.53 15,30L15,18C15,17.47 15.211,16.961 15.586,16.586C15.961,16.211 16.47,16 17,16ZM25,16C25.53,16 26.039,16.211 26.414,16.586C26.789,16.961 27,17.47 27,18L27,30C27,30.53 26.789,31.039 26.414,31.414C26.039,31.789 25.53,32 25,32C24.47,32 23.961,31.789 23.586,31.414C23.211,31.039 23,30.53 23,30L23,18C23,17.47 23.211,16.961 23.586,16.586C23.961,16.211 24.47,16 25,16Z" fill="#FE0000"/>
</svg>
