<svg width="48" height="48" viewBox="0 0 48 48" fill="none" xmlns="http://www.w3.org/2000/svg" xmlns:xlink="http://www.w3.org/1999/xlink">
<path d="M46.828,41.172L36.674,31.018C38.772,27.856 40,24.07 40,20C40,8.972 31.028,0 20,0C8.972,0 0,8.972 0,20C0,31.028 8.972,40 20,40C24.07,40 27.856,38.772 31.018,36.674L41.172,46.828C42.732,48.39 45.268,48.39 46.828,46.828C48.39,45.266 48.39,42.734 46.828,41.172L46.828,41.172ZM6,20C6,12.28 12.28,6 20,6C27.72,6 34,12.28 34,20C34,27.72 27.72,34 20,34C12.28,34 6,27.72 6,20L6,20Z" fill="#F8B602"/>
</svg>
